<svg class="svg-icon" style="width: 1em;height: 1em;vertical-align: middle;fill: currentColor;overflow: hidden;" viewBox="0 0 1024 1024" version="1.1" xmlns="http://www.w3.org/2000/svg"><path d="M858.368 503.04c0 168.277333-148.906667 315.52-346.368 315.52-11.733333 0-32.128-2.176-54.144-5.418667a1164.16 1164.16 0 0 1-43.818667-7.296 84.778667 84.778667 0 0 0-53.418666 7.424c-7.253333 3.584-45.141333 22.016-88.405334 36.949334 18.986667-53.76 1.194667-101.162667-3.370666-112.298667a89.514667 89.514667 0 0 0-18.133334-27.861333c-53.632-56.149333-85.077333-128.64-85.077333-207.018667 0-168.32 148.906667-315.562667 346.368-315.562667s346.368 147.242667 346.368 315.562667zM194.645333 768.768c2.773333 6.826667 12.885333 35.669333-2.645333 64.554667a490.325333 490.325333 0 0 1-28.16 47.616 1084.458667 1084.458667 0 0 1-32.469333 46.848c-10.410667 14.378667 0.768 34.474667 18.261333 32a1313.237333 1313.237333 0 0 0 56.832-9.344 647.978667 647.978667 0 0 0 74.410667-18.048 873.642667 873.642667 0 0 0 115.285333-46.634667 4.949333 4.949333 0 0 1 3.157333-0.426667c11.178667 2.048 76.544 14.08 112.682667 14.08 235.648 0 426.666667-177.493333 426.666667-396.373333 0-218.88-191.018667-396.373333-426.666667-396.373333S85.333333 284.16 85.333333 503.04c0 100.949333 40.618667 193.066667 107.52 263.04 0.725333 0.768 1.365333 1.706667 1.792 2.688z m116.565334-187.264c33.28 0 60.245333-27.136 60.245333-60.586667 0-33.493333-26.965333-60.629333-60.245333-60.629333-33.28 0-60.245333 27.136-60.245334 60.586667 0 33.493333 26.965333 60.629333 60.245334 60.629333z m261.034666-60.586667c0 33.450667-26.965333 60.586667-60.245333 60.586667-33.28 0-60.245333-27.136-60.245333-60.586667 0-33.493333 26.965333-60.629333 60.245333-60.629333 33.28 0 60.245333 27.136 60.245333 60.586667z m140.544 60.586667c33.28 0 60.245333-27.136 60.245334-60.586667 0-33.493333-26.965333-60.629333-60.245334-60.629333-33.28 0-60.245333 27.136-60.245333 60.586667 0 33.493333 26.965333 60.629333 60.245333 60.629333z"  /></svg>